<?xml version="1.0" standalone="no"?>
<!DOCTYPE svg PUBLIC "-//W3C//DTD SVG 20010904//EN"
 "http://www.w3.org/TR/2001/REC-SVG-20010904/DTD/svg10.dtd">
<svg version="1.0" xmlns="http://www.w3.org/2000/svg"
 width="600.000000pt" height="600.000000pt" viewBox="0 0 600.000000 600.000000"
 preserveAspectRatio="xMidYMid meet">

<g transform="translate(0.000000,600.000000) scale(0.100000,-0.100000)"
fill="#000000" stroke="none">
<path d="M2978 5295 c-3 -5 -9 -24 -12 -42 -5 -22 -14 -33 -32 -37 -14 -4 -33
-20 -42 -36 -9 -17 -21 -28 -27 -25 -5 2 -29 10 -52 16 -24 8 -46 21 -51 33
-8 19 -11 16 -23 -24 -19 -63 -17 -158 4 -197 25 -47 53 -69 132 -107 98 -47
126 -96 150 -265 16 -113 17 -110 -82 -137 -62 -17 -69 -17 -128 -1 -83 22
-173 22 -238 -1 l-53 -19 -89 27 -90 26 3 50 c5 75 29 169 57 225 24 46 33 54
103 85 42 20 85 45 95 57 37 45 58 106 58 170 0 66 -21 142 -28 101 -3 -14
-17 -24 -46 -33 -23 -6 -48 -14 -54 -17 -7 -3 -18 6 -24 20 -7 14 -27 32 -45
41 -27 13 -34 22 -34 45 0 45 -19 46 -26 0 -4 -22 -12 -40 -19 -40 -7 0 -24
-10 -39 -21 -24 -19 -28 -20 -39 -5 -7 8 -29 22 -49 31 -30 12 -38 21 -38 40
0 14 -4 25 -10 25 -5 0 -10 -10 -10 -22 0 -14 -14 -34 -35 -51 -19 -15 -35
-35 -35 -43 0 -12 -5 -14 -17 -9 -10 4 -30 10 -45 12 -18 4 -28 12 -30 27 -3
15 -8 8 -21 -28 -21 -60 -21 -98 -3 -160 22 -74 56 -110 133 -142 37 -15 74
-32 81 -37 22 -17 8 -209 -18 -240 -3 -4 -36 9 -73 28 -37 20 -67 31 -67 26 0
-11 81 -71 128 -95 35 -18 39 -44 6 -38 -10 2 -59 23 -109 47 -49 23 -101 45
-115 49 -57 16 42 -51 143 -97 95 -43 129 -67 94 -67 -51 0 -364 124 -456 181
-68 41 -84 35 -31 -13 70 -62 271 -155 415 -189 64 -15 85 -26 85 -44 0 -10
-10 -15 -32 -15 -47 1 -221 26 -307 44 -41 9 -76 14 -78 12 -17 -17 157 -69
287 -86 95 -12 120 -18 120 -28 0 -4 -21 -20 -48 -36 -73 -45 -160 -135 -195
-201 -31 -57 -32 -65 -32 -175 0 -157 20 -207 121 -308 l74 -72 0 -135 c0 -74
3 -135 8 -135 4 1 34 35 67 76 74 93 93 110 105 98 11 -11 -18 -268 -51 -454
-46 -268 -122 -430 -199 -430 -90 0 -200 264 -219 525 -4 55 -4 108 1 118 5 9
35 31 68 47 75 38 97 62 116 127 13 43 13 66 4 135 -11 81 -30 129 -30 76 0
-23 -5 -27 -40 -33 -22 -4 -43 -11 -46 -17 -3 -5 -14 4 -24 20 -10 17 -28 33
-40 37 -12 4 -30 25 -40 48 -14 33 -19 37 -19 19 -1 -13 -18 -40 -40 -61 l-40
-39 -40 37 c-23 21 -41 45 -41 54 0 10 -4 17 -10 17 -5 0 -10 -8 -10 -18 0
-10 -12 -29 -26 -43 -14 -13 -30 -35 -35 -48 -7 -17 -14 -21 -27 -16 -9 4 -27
10 -40 12 -12 3 -22 12 -22 19 0 8 -4 14 -9 14 -13 0 -25 -101 -18 -150 12
-94 95 -189 190 -220 47 -15 83 -61 97 -125 7 -28 15 -118 20 -201 l8 -151 65
-144 c63 -140 77 -174 151 -367 48 -125 105 -218 188 -307 114 -122 257 -204
386 -221 l49 -6 11 -212 c19 -360 64 -481 232 -617 107 -88 234 -130 385 -130
303 0 537 165 649 458 73 191 73 314 -3 614 -99 390 -88 558 41 674 183 165
447 46 474 -214 13 -124 -39 -191 -149 -191 -51 0 -62 4 -88 29 -38 39 -40 90
-3 134 31 37 27 80 -12 115 -80 71 -185 -39 -183 -192 1 -95 56 -183 143 -228
30 -16 65 -23 134 -26 88 -4 96 -3 157 27 125 62 170 156 163 345 -3 103 -6
116 -38 181 -66 133 -200 234 -330 250 -71 8 -216 -10 -286 -36 -74 -28 -156
-104 -194 -182 -83 -170 -79 -400 13 -747 37 -141 41 -166 41 -280 1 -106 -3
-135 -22 -192 -49 -141 -151 -259 -281 -325 l-74 -38 -141 1 c-173 0 -230 18
-314 98 -94 89 -128 186 -142 404 -4 74 -6 168 -3 208 l6 72 45 7 c95 14 227
77 320 151 128 102 200 215 291 460 33 87 84 211 115 275 64 135 72 169 81
341 9 195 41 271 122 296 54 16 128 80 152 129 24 49 27 129 9 200 -9 36 -13
43 -22 32 -6 -8 -24 -21 -41 -29 -16 -8 -33 -16 -37 -18 -5 -2 -8 5 -8 15 0
20 -34 63 -50 63 -4 0 -13 12 -18 28 -9 24 -11 25 -11 5 -1 -15 -9 -25 -26
-29 -14 -3 -34 -17 -44 -30 -22 -28 -36 -30 -45 -9 -3 8 -17 20 -31 25 -18 7
-25 17 -25 35 0 14 -4 25 -10 25 -5 0 -10 -10 -10 -23 0 -16 -10 -28 -33 -39
-18 -8 -39 -28 -47 -44 -8 -16 -16 -31 -17 -33 -1 -2 -9 2 -17 8 -8 7 -27 16
-43 20 -21 6 -27 13 -25 29 2 12 -1 22 -6 22 -18 0 -32 -62 -32 -137 0 -112
42 -178 145 -230 74 -38 77 -44 70 -148 -14 -209 -110 -479 -189 -531 -83 -53
-165 98 -230 421 -45 224 -70 466 -48 465 13 -1 48 -35 78 -76 40 -55 81 -104
88 -104 3 0 6 61 6 136 l0 136 60 66 c34 37 77 98 97 139 31 63 37 87 41 156
7 142 -41 239 -179 355 -43 37 -79 72 -79 79 0 6 23 14 53 18 108 14 218 37
284 60 84 29 68 30 -83 6 -66 -11 -149 -22 -186 -26 -62 -5 -68 -4 -68 13 0
15 15 22 78 35 87 20 213 69 305 120 60 34 152 106 144 113 -2 2 -57 -23 -123
-55 -170 -83 -253 -118 -320 -136 -72 -19 -84 -19 -84 -1 0 8 22 21 53 31 84
28 219 106 206 120 -3 2 -38 -12 -79 -32 -73 -34 -166 -73 -175 -73 -3 0 -5 8
-5 18 0 10 20 27 54 45 54 29 101 65 93 73 -3 3 -34 -11 -69 -31 -79 -43 -98
-45 -98 -7 0 15 -7 52 -15 82 -29 109 -17 156 45 175 155 46 226 163 189 311
-10 40 -29 61 -29 31 0 -17 -74 -40 -79 -24 -2 7 -19 26 -38 43 -18 17 -33 38
-33 47 0 29 -17 27 -24 -3 -4 -21 -11 -30 -25 -30 -11 0 -33 -12 -50 -26 l-30
-25 -23 20 c-12 12 -27 21 -34 21 -7 0 -17 19 -21 43 -5 23 -11 38 -15 32z
m-541 -836 c81 -27 96 -43 31 -33 -80 13 -123 29 -126 48 -3 12 1 17 10 13 7
-3 46 -16 85 -28z m609 -7 c-7 -12 -150 -46 -167 -40 -7 2 26 18 72 35 78 28
110 30 95 5z m-646 -37 c31 -12 32 -14 10 -14 -34 -1 -70 9 -70 20 0 12 18 10
60 -6z m650 -4 c0 -9 -49 -21 -79 -21 -20 1 38 28 62 29 9 1 17 -3 17 -8z
m-669 -31 c6 0 7 -4 4 -10 -10 -16 -45 -12 -45 6 0 11 5 14 16 10 9 -3 20 -6
25 -6z m659 -15 c0 -16 -9 -19 -35 -9 -13 5 -14 8 -3 15 20 13 38 11 38 -6z
m46 -123 c150 -77 148 -275 -4 -349 -46 -23 -61 -25 -130 -21 -89 5 -143 29
-189 82 -80 90 -40 235 80 292 44 21 63 24 127 21 51 -2 88 -11 116 -25z
m-572 7 c22 -6 58 -29 82 -52 143 -138 17 -342 -200 -325 -34 3 -75 12 -92 21
-123 63 -155 218 -62 304 60 56 176 79 272 52z m-229 -584 c31 -19 58 -42 62
-50 7 -19 -28 -72 -95 -145 l-51 -55 -1 149 c0 168 -7 160 85 101z m895 -106
c0 -77 -4 -138 -9 -135 -14 9 -117 139 -130 164 -10 18 -10 27 0 39 16 18 109
73 127 73 9 0 12 -35 12 -141z"/>
<path d="M2903 4196 c-19 -40 -10 -91 20 -110 24 -15 49 3 61 43 12 42 -14
101 -44 101 -13 0 -26 -12 -37 -34z"/>
<path d="M2411 4181 c-6 -11 -11 -38 -11 -60 0 -76 72 -90 86 -16 9 50 -7 89
-39 93 -18 2 -29 -3 -36 -17z"/>
</g>
</svg>